# xmcd CD database file
#
# Track frame offsets:
#	183
#	19683
#	33793
#	45028
#	59853
#	75455
#	86715
#	95113
#	107163
#	122810
#	139020
#	148555
#	162705
#	177560
#	188535
#	204473
#	221663
#
# Disc length: 3192 seconds
#
# Revision: 0
# Processed by: cddbd v1.5.2PL0 Copyright (c) Steve Scherf et al.
# Submitted via: CDex 1.70beta2
#
DISCID=f00c7611
DTITLE=Armando Trovajoli - Anthology
DYEAR=1992
DGENRE=Musica Italiana
TTITLE0=Armando Trovajoli - Stradivarius (C.A.Rossi)
TTITLE1=Armando Trovajoli -  Antares (A.Trovajoli)
TTITLE2=Abbe Lane - El Negro Zumbon (Vatro-Enguick-Giordano)
TTITLE3=Che M'è 'Maparato A 'Ffa (Verde-Trovajoli)
TTITLE4=Sophia Loren - Mambo Bacan (Vatro-Giordano)
TTITLE5=Armando Trovajoli and Miranda Martino - Kiss Me Kiss Me (Vatro-Danell)
TTITLE6=Armando Trovajoli - Rapsodia In Blue (Gershwin)
TTITLE7=Armando Trovajoli - A Foggy Day (Gershwin)
TTITLE8=Armando Trovajoli - The Man I Love (Gershwin)
TTITLE9=Armando Trovajoli and Edda Dell'Orso - Come Quando Perchè (Trovajoli)
TTITLE10=Armando Trovajoli - Ligabue (Trovajoli)
TTITLE11=Armando Trovajoli - Adelaide (Trovajoli)
TTITLE12=Aldo Donati - Ciumachella De Trastevere (Garinei-Giovannini-Trovajoli)
TTITLE13=Renato Rascel - Roma Nun Fà La Stupida Stasera (Garinei-Giovannini-Trovajoli)
TTITLE14=Alberto Lionello - Quattro Palmi Di Terra In California (Garinei-Giovannini-Trovajoli)
TTITLE15=Johnny Dorelli - Clermentina (Garinei-Giovannini-Trovajoli)
TTITLE16=J.Dorelli-D.Goggi-Christy-U.M.Morosi - Aggiungi Un Posto A Tavola (Garinei-Giovannini-Trovajoli)
EXTD=YEAR: 1992
EXTT0=
EXTT1=
EXTT2=
EXTT3=
EXTT4=
EXTT5=
EXTT6=
EXTT7=
EXTT8=
EXTT9=
EXTT10=
EXTT11=
EXTT12=
EXTT13=
EXTT14=
EXTT15=
EXTT16=
PLAYORDER=
